<svg width="191" height="46" viewBox="0 0 191 46" fill="none" xmlns="http://www.w3.org/2000/svg">
<path d="M0.36 40.048V6.4L5.928 0.831998H12.216V5.536H8.472L5.784 8.224V38.224L8.472 40.912H12.216V45.616H5.928L0.36 40.048ZM57.489 45.616V40.912H61.233L63.921 38.224V8.224L61.233 5.536H57.489V0.831998H63.777L69.345 6.4V40.048L63.777 45.616H57.489ZM72.7031 40.48H94.8791V45.088H72.7031V40.48ZM94.875 40.48H117.051V45.088H94.875V40.48ZM119.687 35.056V30.832H125.159V33.376L126.983 35.2H137.447L139.367 33.28V27.088L137.495 25.216H124.727L119.783 20.32V11.344L124.727 6.4H139.511L144.455 11.344V15.616H138.983V13.024L137.111 11.2H127.127L125.255 13.024V18.592L127.127 20.416H139.895L144.839 25.36V34.96L139.799 40H124.631L119.687 35.056ZM150.834 6.4H156.402V40H150.834V6.4ZM172.128 22.672L160.944 6.4H167.184L175.248 18.256L183.312 6.4H189.552L178.416 22.864L190.032 40H183.792L175.248 27.328L166.704 40H160.464L172.128 22.672Z" fill="white"/>
<path d="M13.7981 6.4H19.5581L28.4381 33.376H28.5341L37.4141 6.4H43.1741L31.2701 40H25.7021L13.7981 6.4ZM47.475 6.4H53.043V40H47.475V6.4Z" fill="#19E72F"/>
</svg>
