<svg width="190" height="46" viewBox="0 0 190 46" fill="none" xmlns="http://www.w3.org/2000/svg">
<path d="M0.36 0.831998H12.072V5.488H5.784V40.96H12.072V45.616H0.36V0.831998ZM57.3484 45.616V40.96H63.6844V5.488H57.3484V0.831998H69.0604V45.616H57.3484ZM72.4219 40.48H94.5979V45.088H72.4219V40.48ZM94.5938 40.48H116.77V45.088H94.5938V40.48ZM119.406 35.056V30.832H124.878V33.376L126.702 35.2H137.166L139.086 33.28V27.088L137.214 25.216H124.446L119.502 20.32V11.344L124.446 6.4H139.23L144.174 11.344V15.616H138.702V13.024L136.83 11.2H126.846L124.974 13.024V18.592L126.846 20.416H139.614L144.558 25.36V34.96L139.518 40H124.35L119.406 35.056ZM150.553 6.4H156.121V40H150.553V6.4ZM171.847 22.672L160.663 6.4H166.903L174.967 18.256L183.031 6.4H189.271L178.135 22.864L189.751 40H183.511L174.967 27.328L166.423 40H160.183L171.847 22.672Z" fill="black"/>
<path d="M13.6575 6.4H19.4175L28.2975 33.376H28.3935L37.2735 6.4H43.0335L31.1295 40H25.5615L13.6575 6.4ZM47.3344 6.4H52.9024V40H47.3344V6.4Z" fill="#19E72F"/>
</svg>
